<svg width="129" height="31" viewBox="0 0 129 31" fill="none" xmlns="http://www.w3.org/2000/svg">
<path d="M12.3758 30.0399L7.34666 20.2942L6.03965 17.3392L5.44298 20.2942L3.5109 30.0399H0.357056L4.67583 9.15629H5.01679L10.7562 20.4363L12.461 24.2152L14.1658 20.4363L19.7916 9.15629H20.1041L24.5934 30.0399H21.4679L19.3654 20.2942L18.7403 17.3392L17.6038 20.2942L12.5462 30.0399H12.3758ZM33.1355 30.324C31.7717 30.324 30.5689 30.0209 29.5271 29.4148C28.5042 28.8086 27.7086 27.9846 27.1404 26.9428C26.5721 25.901 26.288 24.7456 26.288 23.4764C26.288 22.2263 26.5626 21.0898 27.112 20.0669C27.6802 19.0251 28.4758 18.2011 29.4987 17.595C30.5215 16.9699 31.7338 16.6573 33.1355 16.6573C34.5372 16.6573 35.7495 16.9699 36.7724 17.595C37.7952 18.2011 38.5813 19.0251 39.1307 20.0669C39.68 21.0898 39.9546 22.2263 39.9546 23.4764C39.9546 24.7456 39.6705 25.901 39.1022 26.9428C38.5529 27.9846 37.7668 28.8086 36.744 29.4148C35.7211 30.0209 34.5183 30.324 33.1355 30.324ZM33.2208 27.8236C34.3573 27.8236 35.2286 27.4069 35.8347 26.5735C36.4598 25.74 36.7724 24.7266 36.7724 23.5333C36.7724 22.7188 36.6208 21.9895 36.3178 21.3455C36.0147 20.6825 35.579 20.1521 35.0108 19.7543C34.4615 19.3566 33.808 19.1577 33.0503 19.1577C32.3115 19.1577 31.677 19.3566 31.1466 19.7543C30.6162 20.1521 30.1995 20.6825 29.8964 21.3455C29.6123 21.9895 29.4702 22.7188 29.4702 23.5333C29.4702 24.3288 29.6312 25.0581 29.9533 25.7211C30.2753 26.3651 30.7109 26.8765 31.2603 27.2554C31.8285 27.6342 32.482 27.8236 33.2208 27.8236ZM42.9245 30.0399V16.9983H45.9931V19.5555C46.2962 18.7031 46.7792 18.0117 47.4421 17.4813C48.1241 16.932 48.9101 16.6573 49.8004 16.6573C50.4066 16.6573 50.8233 16.7142 51.0506 16.8278L50.6244 19.9248C50.4539 19.8112 50.0845 19.7543 49.5163 19.7543C49.0427 19.7543 48.5313 19.8585 47.982 20.0669C47.4327 20.2752 46.9591 20.6446 46.5613 21.175C46.1825 21.6864 45.9931 22.4062 45.9931 23.3344V30.0399H42.9245ZM53.0524 24.272V21.5444H62.798V24.272H53.0524ZM71.096 30.324C70.3004 30.324 69.5143 30.2293 68.7377 30.0399C67.9611 29.8315 67.2697 29.5852 66.6635 29.3011C66.0574 28.998 65.6028 28.695 65.2997 28.3919L66.8056 25.6927C67.014 25.8631 67.336 26.0904 67.7716 26.3746C68.2263 26.6398 68.7472 26.8765 69.3344 27.0849C69.9216 27.2933 70.5088 27.3974 71.096 27.3974C72.062 27.3974 72.8671 27.1701 73.5111 26.7155C74.174 26.2609 74.5055 25.598 74.5055 24.7266C74.5055 24.0068 74.3161 23.4102 73.9373 22.9366C73.5584 22.4631 73.0565 22.0463 72.4314 21.6864C71.8252 21.3265 71.1623 20.9856 70.4425 20.6636C69.7416 20.3226 69.0692 19.9438 68.4251 19.527C67.6864 19.0345 67.0424 18.381 66.4931 17.5665C65.9437 16.752 65.6691 15.7008 65.6691 14.4127C65.6691 13.1436 65.9532 12.1018 66.5215 11.2873C67.1087 10.4728 67.8758 9.86662 68.8229 9.46884C69.789 9.05211 70.8402 8.84375 71.9768 8.84375C72.886 8.84375 73.6626 8.93846 74.3066 9.12788C74.9507 9.3173 75.4905 9.5446 75.9262 9.80979C76.3618 10.075 76.7028 10.3118 76.9491 10.5201L75.4432 13.1057C75.1212 12.7647 74.6381 12.4522 73.9941 12.1681C73.3501 11.865 72.6303 11.7135 71.8347 11.7135C70.9065 11.7135 70.1678 11.9313 69.6185 12.367C69.0692 12.7837 68.7945 13.4088 68.7945 14.2422C68.7945 14.981 69.0408 15.6155 69.5333 16.1459C70.0257 16.6573 70.6508 17.1309 71.4085 17.5665C72.1851 17.9833 72.9807 18.4095 73.7952 18.8451C74.6097 19.2808 75.3295 19.7922 75.9546 20.3794C76.466 20.834 76.9017 21.4023 77.2616 22.0842C77.6215 22.7661 77.8014 23.5333 77.8014 24.3857C77.8014 25.6737 77.4984 26.7629 76.8922 27.6532C76.305 28.5434 75.5095 29.2159 74.5055 29.6705C73.5016 30.1061 72.3651 30.324 71.096 30.324ZM87.1053 30.324C85.4763 30.324 84.1504 30.0114 83.1275 29.3864C82.1046 28.7423 81.3564 27.8994 80.8829 26.8576C80.4093 25.8158 80.1726 24.7077 80.1726 23.5333C80.1726 22.1126 80.4567 20.8909 81.025 19.868C81.6122 18.8451 82.4172 18.059 83.4401 17.5097C84.4629 16.9415 85.6184 16.6573 86.9065 16.6573C88.9711 16.6573 90.477 17.2351 91.4241 18.3905C92.3712 19.527 92.8448 21.0613 92.8448 22.9934C92.8448 23.5049 92.8164 24.0352 92.7595 24.5846H83.3832C83.5916 25.759 84.0083 26.6019 84.6334 27.1133C85.2774 27.6058 86.1298 27.8521 87.1906 27.8521C88.2135 27.8521 89.0185 27.7573 89.6057 27.5679C90.1929 27.3785 90.6759 27.1891 91.0548 26.9997L91.9924 29.1875C91.6135 29.4337 91.0263 29.6894 90.2308 29.9546C89.4352 30.2009 88.3934 30.324 87.1053 30.324ZM83.3832 22.4536H89.8614C89.8803 21.2223 89.6057 20.3794 89.0374 19.9248C88.4692 19.4702 87.7304 19.2429 86.8212 19.2429C85.8741 19.2429 85.0975 19.4986 84.4914 20.0101C83.9042 20.5026 83.5348 21.3171 83.3832 22.4536ZM95.9296 30.0399V9.15629H98.9698V30.0399H95.9296ZM107.718 30.0399L100.842 16.9983H104.336L107.149 22.8798L108.059 25.2381L108.968 22.8798L111.752 16.9983H115.162L108.314 30.0399H107.718Z" fill="#FECD8C"/>
<path d="M118.297 9.06835V5.19606H116.8V4.8064H120.246V5.19606H118.748V9.06835H118.297ZM120.965 9.06835V4.8064H121.337L123.285 8.13072H123.09L125.02 4.8064H125.392V9.06835H124.96V5.48222H125.063L123.285 8.52647H123.072L121.282 5.48222H121.398V9.06835H120.965Z" fill="#FECD8C"/>
<path d="M121.35 13.6347C124.993 13.6347 127.946 10.6817 127.946 7.03887C127.946 3.39607 124.993 0.442993 121.35 0.442993C117.707 0.442993 114.754 3.39607 114.754 7.03887C114.754 10.6817 117.707 13.6347 121.35 13.6347Z" stroke="#FECD8C" stroke-width="0.369"/>
</svg>
