<svg width="97" height="23" viewBox="0 0 97 23" fill="none" xmlns="http://www.w3.org/2000/svg">
<path d="M9.6724 22.5431L5.89397 15.221L4.912 13.001L4.46371 15.221L3.01211 22.5431H0.642578L3.88734 6.85298H4.1435L8.45562 15.3278L9.73645 18.167L11.0173 15.3278L15.244 6.85298H15.4788L18.8517 22.5431H16.5035L14.9238 15.221L14.4542 13.001L13.6003 15.221L9.80048 22.5431H9.6724ZM25.2695 22.7566C24.2449 22.7566 23.3412 22.5289 22.5584 22.0735C21.7899 21.6181 21.1922 20.999 20.7653 20.2163C20.3383 19.4335 20.1249 18.5654 20.1249 17.6119C20.1249 16.6727 20.3312 15.8188 20.7439 15.0503C21.1709 14.2675 21.7686 13.6485 22.5371 13.1931C23.3056 12.7234 24.2164 12.4886 25.2695 12.4886C26.3226 12.4886 27.2335 12.7234 28.0019 13.1931C28.7704 13.6485 29.3611 14.2675 29.7738 15.0503C30.1865 15.8188 30.3928 16.6727 30.3928 17.6119C30.3928 18.5654 30.1794 19.4335 29.7524 20.2163C29.3397 20.999 28.7491 21.6181 27.9806 22.0735C27.2121 22.5289 26.3084 22.7566 25.2695 22.7566ZM25.3336 20.878C26.1874 20.878 26.8421 20.5649 27.2975 19.9388C27.7671 19.3126 28.0019 18.5512 28.0019 17.6546C28.0019 17.0427 27.8881 16.4948 27.6604 16.0109C27.4327 15.5128 27.1054 15.1143 26.6784 14.8155C26.2657 14.5166 25.7747 14.3672 25.2055 14.3672C24.6505 14.3672 24.1737 14.5166 23.7752 14.8155C23.3767 15.1143 23.0636 15.5128 22.8359 16.0109C22.6225 16.4948 22.5157 17.0427 22.5157 17.6546C22.5157 18.2523 22.6367 18.8002 22.8786 19.2983C23.1206 19.7822 23.4479 20.1665 23.8606 20.4511C24.2876 20.7357 24.7785 20.878 25.3336 20.878ZM32.6241 22.5431V12.7448H34.9296V14.666C35.1573 14.0256 35.5202 13.5062 36.0183 13.1077C36.5306 12.695 37.1212 12.4886 37.7901 12.4886C38.2455 12.4886 38.5586 12.5313 38.7294 12.6167L38.4092 14.9435C38.2811 14.8581 38.0036 14.8155 37.5766 14.8155C37.2209 14.8155 36.8366 14.8937 36.4239 15.0503C36.0112 15.2068 35.6554 15.4843 35.3565 15.8828C35.0719 16.2671 34.9296 16.8079 34.9296 17.5052V22.5431H32.6241ZM40.2333 18.2096V16.1603H47.5554V18.2096H40.2333ZM53.7898 22.7566C53.192 22.7566 52.6014 22.6854 52.018 22.5431C51.4345 22.3866 50.915 22.2016 50.4596 21.9881C50.0042 21.7604 49.6627 21.5327 49.435 21.305L50.5664 19.277C50.7229 19.4051 50.9648 19.5759 51.2922 19.7893C51.6337 19.9886 52.0251 20.1665 52.4662 20.323C52.9074 20.4796 53.3486 20.5578 53.7898 20.5578C54.5156 20.5578 55.1204 20.3871 55.6043 20.0455C56.1024 19.7039 56.3514 19.2058 56.3514 18.5512C56.3514 18.0104 56.2091 17.5621 55.9245 17.2063C55.6399 16.8505 55.2627 16.5375 54.7931 16.2671C54.3377 15.9967 53.8396 15.7405 53.2988 15.4986C52.7722 15.2424 52.267 14.9578 51.7831 14.6447C51.2281 14.2747 50.7442 13.7837 50.3315 13.1717C49.9188 12.5598 49.7125 11.7699 49.7125 10.8022C49.7125 9.84869 49.9259 9.06597 50.3529 8.45402C50.7941 7.84207 51.3704 7.38666 52.082 7.0878C52.8078 6.77471 53.5976 6.61816 54.4515 6.61816C55.1346 6.61816 55.7181 6.68932 56.202 6.83164C56.6859 6.97395 57.0915 7.14473 57.4188 7.34397C57.7461 7.54321 58.0023 7.7211 58.1873 7.87764L57.0559 9.82023C56.8139 9.56407 56.451 9.32925 55.9672 9.11578C55.4833 8.88807 54.9425 8.77422 54.3448 8.77422C53.6474 8.77422 53.0924 8.93788 52.6797 9.26521C52.267 9.5783 52.0607 10.0479 52.0607 10.6741C52.0607 11.2291 52.2457 11.7059 52.6157 12.1044C52.9857 12.4886 53.4553 12.8444 54.0246 13.1717C54.6081 13.4848 55.2058 13.805 55.8177 14.1323C56.4297 14.4597 56.9705 14.8439 57.4401 15.2851C57.8244 15.6266 58.1517 16.0536 58.4221 16.5659C58.6925 17.0782 58.8277 17.6546 58.8277 18.295C58.8277 19.2628 58.6 20.0811 58.1446 20.75C57.7034 21.4188 57.1057 21.924 56.3514 22.2656C55.5972 22.5929 54.7433 22.7566 53.7898 22.7566ZM65.8178 22.7566C64.5939 22.7566 63.5977 22.5218 62.8292 22.0521C62.0607 21.5683 61.4986 20.935 61.1428 20.1522C60.787 19.3695 60.6092 18.537 60.6092 17.6546C60.6092 16.5873 60.8226 15.6693 61.2496 14.9008C61.6907 14.1323 62.2956 13.5417 63.0641 13.129C63.8326 12.7021 64.7007 12.4886 65.6684 12.4886C67.2197 12.4886 68.351 12.9227 69.0626 13.7908C69.7742 14.6447 70.13 15.7974 70.13 17.249C70.13 17.6333 70.1086 18.0318 70.0659 18.4445H63.0214C63.1779 19.3268 63.491 19.9601 63.9606 20.3444C64.4445 20.7144 65.0849 20.8994 65.8819 20.8994C66.6504 20.8994 67.2552 20.8282 67.6964 20.6859C68.1376 20.5436 68.5005 20.4013 68.7851 20.259L69.4895 21.9027C69.2049 22.0877 68.7637 22.2798 68.166 22.4791C67.5683 22.6641 66.7856 22.7566 65.8178 22.7566ZM63.0214 16.8434H67.8885C67.9027 15.9184 67.6964 15.2851 67.2695 14.9435C66.8425 14.602 66.2875 14.4312 65.6044 14.4312C64.8928 14.4312 64.3093 14.6233 63.8539 15.0076C63.4127 15.3776 63.1352 15.9895 63.0214 16.8434ZM72.4476 22.5431V6.85298H74.7318V22.5431H72.4476ZM81.3042 22.5431L76.1382 12.7448H78.7639L80.8772 17.1636L81.5603 18.9354L82.2434 17.1636L84.3355 12.7448H86.8971L81.7525 22.5431H81.3042Z" fill="#FECD8C"/>
<path d="M89.2522 6.78691V3.8776H88.127V3.58484H90.716V3.8776H89.5908V6.78691H89.2522ZM91.2568 6.78691V3.58484H91.5359L92.9997 6.08245H92.8533L94.3034 3.58484H94.5824V6.78691H94.2576V4.0926H94.3354L92.9997 6.37979H92.8396L91.4947 4.0926H91.5816V6.78691H91.2568Z" fill="#FECD8C"/>
<path d="M91.5454 10.2177C94.2823 10.2177 96.501 7.99899 96.501 5.2621C96.501 2.52521 94.2823 0.306519 91.5454 0.306519C88.8085 0.306519 86.5898 2.52521 86.5898 5.2621C86.5898 7.99899 88.8085 10.2177 91.5454 10.2177Z" stroke="#FECD8C" stroke-width="0.277235"/>
</svg>
