<svg width="26" height="26" viewBox="0 0 26 26" fill="none" xmlns="http://www.w3.org/2000/svg">
<path d="M12.9993 12.4584C12.2811 12.4584 11.5922 12.173 11.0843 11.6651C10.5764 11.1572 10.291 10.4683 10.291 9.75002C10.291 9.03173 10.5764 8.34285 11.0843 7.83494C11.5922 7.32703 12.2811 7.04169 12.9993 7.04169C13.7176 7.04169 14.4065 7.32703 14.9144 7.83494C15.4223 8.34285 15.7077 9.03173 15.7077 9.75002C15.7077 10.1057 15.6376 10.4579 15.5015 10.7865C15.3654 11.115 15.1659 11.4136 14.9144 11.6651C14.6629 11.9166 14.3644 12.1161 14.0358 12.2522C13.7072 12.3883 13.355 12.4584 12.9993 12.4584ZM12.9993 2.16669C10.9881 2.16669 9.05927 2.96564 7.63712 4.38779C6.21497 5.80994 5.41602 7.7388 5.41602 9.75002C5.41602 15.4375 12.9993 23.8334 12.9993 23.8334C12.9993 23.8334 20.5827 15.4375 20.5827 9.75002C20.5827 7.7388 19.7837 5.80994 18.3616 4.38779C16.9394 2.96564 15.0106 2.16669 12.9993 2.16669Z" fill="white"/>
</svg>
