<svg width="33" height="33" viewBox="0 0 33 33" fill="none" xmlns="http://www.w3.org/2000/svg">
<path d="M10.723 2.74951H22.2731C26.673 2.74951 30.248 6.32451 30.248 10.7245V22.2745C30.248 24.3896 29.4078 26.4181 27.9122 27.9137C26.4166 29.4093 24.3882 30.2495 22.2731 30.2495H10.723C6.32305 30.2495 2.74805 26.6745 2.74805 22.2745V10.7245C2.74805 8.60941 3.58827 6.58094 5.08387 5.08534C6.57947 3.58973 8.60795 2.74951 10.723 2.74951ZM10.448 5.49951C9.13523 5.49951 7.87617 6.02103 6.94787 6.94933C6.01956 7.87764 5.49805 9.13669 5.49805 10.4495V22.5495C5.49805 25.2858 7.7118 27.4995 10.448 27.4995H22.548C23.8609 27.4995 25.1199 26.978 26.0482 26.0497C26.9765 25.1214 27.498 23.8623 27.498 22.5495V10.4495C27.498 7.71326 25.2843 5.49951 22.548 5.49951H10.448ZM23.7168 7.56201C24.1726 7.56201 24.6098 7.74309 24.9321 8.06542C25.2545 8.38775 25.4355 8.82492 25.4355 9.28076C25.4355 9.7366 25.2545 10.1738 24.9321 10.4961C24.6098 10.8184 24.1726 10.9995 23.7168 10.9995C23.261 10.9995 22.8238 10.8184 22.5015 10.4961C22.1791 10.1738 21.998 9.7366 21.998 9.28076C21.998 8.82492 22.1791 8.38775 22.5015 8.06542C22.8238 7.74309 23.261 7.56201 23.7168 7.56201ZM16.498 9.62451C18.3214 9.62451 20.0701 10.3488 21.3594 11.6382C22.6487 12.9275 23.373 14.6761 23.373 16.4995C23.373 18.3229 22.6487 20.0716 21.3594 21.3609C20.0701 22.6502 18.3214 23.3745 16.498 23.3745C14.6747 23.3745 12.926 22.6502 11.6367 21.3609C10.3474 20.0716 9.62305 18.3229 9.62305 16.4995C9.62305 14.6761 10.3474 12.9275 11.6367 11.6382C12.926 10.3488 14.6747 9.62451 16.498 9.62451ZM16.498 12.3745C15.404 12.3745 14.3548 12.8091 13.5812 13.5827C12.8076 14.3563 12.373 15.4055 12.373 16.4995C12.373 17.5935 12.8076 18.6427 13.5812 19.4163C14.3548 20.1899 15.404 20.6245 16.498 20.6245C17.5921 20.6245 18.6413 20.1899 19.4149 19.4163C20.1885 18.6427 20.623 17.5935 20.623 16.4995C20.623 15.4055 20.1885 14.3563 19.4149 13.5827C18.6413 12.8091 17.5921 12.3745 16.498 12.3745Z" fill="#C3C3C3"/>
</svg>
