<svg width="35" height="35" viewBox="0 0 35 35" fill="none" xmlns="http://www.w3.org/2000/svg">
<path d="M27.7083 4.37524C28.4819 4.37524 29.2237 4.68253 29.7707 5.22952C30.3177 5.7765 30.625 6.51836 30.625 7.29191V27.7086C30.625 28.4821 30.3177 29.224 29.7707 29.771C29.2237 30.318 28.4819 30.6252 27.7083 30.6252H7.29167C6.51812 30.6252 5.77625 30.318 5.22927 29.771C4.68229 29.224 4.375 28.4821 4.375 27.7086V7.29191C4.375 6.51836 4.68229 5.7765 5.22927 5.22952C5.77625 4.68253 6.51812 4.37524 7.29167 4.37524H27.7083ZM26.9792 26.9794V19.2502C26.9792 17.9894 26.4783 16.7801 25.5867 15.8885C24.6951 14.997 23.4859 14.4961 22.225 14.4961C20.9854 14.4961 19.5417 15.2544 18.8417 16.3919V14.7732H14.7729V26.9794H18.8417V19.7898C18.8417 18.6669 19.7458 17.7482 20.8688 17.7482C21.4102 17.7482 21.9295 17.9633 22.3124 18.3462C22.6953 18.729 22.9104 19.2483 22.9104 19.7898V26.9794H26.9792ZM10.0333 12.4836C10.6831 12.4836 11.3063 12.2255 11.7657 11.766C12.2252 11.3065 12.4833 10.6834 12.4833 10.0336C12.4833 8.67733 11.3896 7.56899 10.0333 7.56899C9.37969 7.56899 8.75281 7.82866 8.29061 8.29085C7.82841 8.75305 7.56875 9.37993 7.56875 10.0336C7.56875 11.3898 8.67708 12.4836 10.0333 12.4836ZM12.0604 26.9794V14.7732H8.02083V26.9794H12.0604Z" fill="#C3C3C3"/>
</svg>
