<svg width="27" height="27" viewBox="0 0 27 27" fill="none" xmlns="http://www.w3.org/2000/svg">
<path fill-rule="evenodd" clip-rule="evenodd" d="M18.5288 27V16.5442H22.0387L22.5639 12.4699H18.5274V9.8685C18.5274 8.6886 18.8555 7.884 20.5484 7.884H22.7057V4.239C21.661 4.12675 20.6108 4.07267 19.5602 4.077C16.4498 4.077 14.3208 5.97645 14.3208 9.4635V12.4699H10.8V16.5442H14.3195V27H6.4904C0 27 0 21.3331 0 20.5096V6.4904C0 5.6669 0 0 6.4904 0H20.5096C27 0 27 5.6669 27 6.4904V20.5096C27 21.3331 27 27 20.5096 27H18.5288Z" fill="#C3C3C3"/>
</svg>
